# xmcd
#
# Track frame offsets:
#	150
#	24537
#	45442
#	67750
#	80462
#	101962
#	120845
#	144062
#
# Disc length: 2191 seconds
#
# Revision: 0
# Processed by: cddbd v1.4PL0 Copyright (c) Steve Scherf et al.
# Submitted via: dBpowerAMP V4.0
#
DISCID=56088d08
DTITLE=Jeff Fetterman - Ordinary Man
DYEAR=1998
DGENRE=Blues
TTITLE0=Ordinary Man
TTITLE1=Giver Of A Broken Heart
TTITLE2=Last Walk In The Rain
TTITLE3=Same Ol Thing
TTITLE4=Ive Seen The World
TTITLE5=Diversity University
TTITLE6=Red House
TTITLE7=Freedom
EXTD=
EXTT0=
EXTT1=
EXTT2=
EXTT3=
EXTT4=
EXTT5=
EXTT6=
EXTT7=
PLAYORDER=
